<svg id="Layer_1" data-name="Layer 1" xmlns="http://www.w3.org/2000/svg" viewBox="0 0 256 256"><defs><style>.cls-1{fill:#46cbf4;stroke-width:7px;}.cls-1,.cls-2{stroke:#fff;stroke-miterlimit:10;}.cls-2{fill:none;stroke-width:5px;}</style></defs><title>iconSheet</title><path class="cls-1" d="M198.77,89c0,39.22-71,148.09-71,148.09s-71-108.86-71-148.09a71,71,0,1,1,142,0Z"/><path class="cls-2" d="M137.89,112.08l-4.43-11.73,4.39-6.75-8-26.58-2,18.45-6.49-3.53-.2,20.74-4.89-1.46L118,113.88H103.9a2.79,2.79,0,0,1-2.79-2.79V73.53h-6a1.35,1.35,0,0,1-.89-2.37l6.88-6V49.55a2.46,2.46,0,0,1,2.46-2.46h4.13a2.46,2.46,0,0,1,2.46,2.46v7.09l15.9-14.33a2.76,2.76,0,0,1,3.69,0L161.46,71a1.45,1.45,0,0,1-1,2.53h-5.11v37.53a2.82,2.82,0,0,1-2.82,2.82H138.17Z"/><polyline class="cls-2" points="87.55 124.7 119.59 124.7 121.69 131.74 120.64 141.54"/><polyline class="cls-2" points="168.23 124.7 141.01 124.7 144.59 130.26 139.26 141.54"/></svg>