<svg id="Layer_1" data-name="Layer 1" xmlns="http://www.w3.org/2000/svg" viewBox="0 0 256 256"><defs><style>.cls-1{fill:#46cbf4;}.cls-1,.cls-2,.cls-3{stroke:#fff;stroke-miterlimit:10;}.cls-1,.cls-3{stroke-width:7px;}.cls-2,.cls-3{fill:none;}.cls-2{stroke-width:6px;}</style></defs><title>iconSheet</title><path class="cls-1" d="M198.77,89c0,39.22-71,148.09-71,148.09s-71-108.86-71-148.09a71,71,0,1,1,142,0Z"/><path class="cls-2" d="M82.43,121.22s11.69,13.06,24.76,0c0,0,11.92,11,23.62,0,0,0,8,9.39,20.64,0,0,0,8.25,9,19,0"/><path class="cls-2" d="M93.46,137.59s8.76,9.18,18.56,0c0,0,8.94,7.74,17.7,0,0,0,6,6.6,15.47,0,0,0,6.19,6.31,14.26,0"/><path class="cls-3" d="M101.5,108V76.5h-8a1.46,1.46,0,0,1-1-2.47l9-8.84V49.88a2.57,2.57,0,0,1,2.62-2.38h5.55a2.4,2.4,0,0,1,2.42,2.4l0,5.57,14.09-12.7a2.71,2.71,0,0,1,3.63,0l33.49,31.11a1.52,1.52,0,0,1-.95,2.63h-6.9V106"/><path class="cls-2" d="M76.24,103.6s13.61,16.7,28.81,0c0,0,13.87,14.09,27.48,0,0,0,9.34,12,24,0,0,0,9.6,11.48,22.14,0"/></svg>