<svg id="Layer_1" data-name="Layer 1" xmlns="http://www.w3.org/2000/svg" xmlns:xlink="http://www.w3.org/1999/xlink" viewBox="0 0 1024 1024"><defs><style>.cls-1,.cls-4{fill:none;stroke:#f2f2f2;stroke-miterlimit:10;}.cls-2{isolation:isolate;}.cls-3{clip-path:url(#clip-path);}.cls-4{stroke-linecap:square;stroke-width:20px;}</style><clipPath id="clip-path"><rect class="cls-1" x="12" y="137" width="1000" height="750"/></clipPath></defs><title>detailIcons</title><g class="cls-2"><g class="cls-3"><g class="cls-3"><line class="cls-4" x1="37" y1="512" x2="987" y2="512"/><line class="cls-4" x1="487" y1="162" x2="487" y2="862"/><line class="cls-4" x1="537" y1="262" x2="537" y2="762"/><line class="cls-4" x1="437" y1="312" x2="437" y2="712"/><line class="cls-4" x1="337" y1="362" x2="337" y2="662"/><line class="cls-4" x1="287" y1="312" x2="287" y2="712"/><line class="cls-4" x1="237" y1="462" x2="237" y2="562"/><line class="cls-4" x1="187" y1="412" x2="187" y2="612"/><line class="cls-4" x1="137" y1="462" x2="137" y2="562"/><line class="cls-4" x1="637" y1="462" x2="637" y2="562"/><line class="cls-4" x1="687" y1="412" x2="687" y2="612"/><line class="cls-4" x1="737" y1="312" x2="737" y2="712"/><line class="cls-4" x1="787" y1="362" x2="787" y2="662"/><line class="cls-4" x1="887" y1="412" x2="887" y2="612"/></g><rect class="cls-1" x="12" y="137" width="1000" height="750"/></g><rect class="cls-1" x="12" y="137" width="1000" height="750"/></g><line class="cls-4" x1="160.86" y1="436.15" x2="160.86" y2="587.85"/><line class="cls-4" x1="212.17" y1="436.15" x2="212.17" y2="587.85"/><line class="cls-4" x1="311.8" y1="375.58" x2="311.8" y2="648.42"/><line class="cls-4" x1="362.34" y1="411.99" x2="362.34" y2="612.01"/><line class="cls-4" x1="461.97" y1="236.03" x2="461.97" y2="787.97"/><line class="cls-4" x1="512" y1="204.93" x2="512" y2="819.07"/><line class="cls-4" x1="661.97" y1="427.16" x2="661.97" y2="596.84"/><line class="cls-4" x1="561.82" y1="367" x2="561.82" y2="657"/><line class="cls-4" x1="712.2" y1="356.78" x2="712.2" y2="667.22"/><line class="cls-4" x1="762.3" y1="333.56" x2="762.3" y2="690.44"/><line class="cls-4" x1="811.33" y1="396.73" x2="811.33" y2="627.27"/><line class="cls-4" x1="861.78" y1="447.83" x2="861.78" y2="576.17"/><line class="cls-4" x1="912.88" y1="458.98" x2="912.88" y2="565.02"/></svg>