<svg id="Layer_1" data-name="Layer 1" xmlns="http://www.w3.org/2000/svg" xmlns:xlink="http://www.w3.org/1999/xlink" viewBox="0 0 1024 1024"><defs><style>.cls-1,.cls-2,.cls-6,.cls-7{fill:none;stroke:#f2f2f2;stroke-miterlimit:10;}.cls-2{clip-rule:evenodd;}.cls-3{isolation:isolate;}.cls-4{clip-path:url(#clip-path);}.cls-5{clip-path:url(#clip-path-2);}.cls-6{fill-rule:evenodd;}.cls-7{stroke-linecap:square;stroke-width:30px;}</style><clipPath id="clip-path"><rect class="cls-1" x="316.35" y="29" width="391.3" height="1000"/></clipPath><clipPath id="clip-path-2"><polygon class="cls-2" points="707.65 550.74 707.65 681.17 577.22 615.96 707.65 550.74"/></clipPath></defs><title>detailIcons</title><g class="cls-3"><g class="cls-4"><g class="cls-5"><g class="cls-4"><rect class="cls-1" x="359.83" y="333.35" width="565.22" height="565.22"/></g><rect class="cls-1" x="316.35" y="29" width="391.3" height="1000"/></g><polygon class="cls-6" points="707.65 550.74 707.65 681.17 577.22 615.96 707.65 550.74"/><g class="cls-4"><line class="cls-7" x1="555.48" y1="50.74" x2="555.48" y2="964.82"/><line class="cls-7" x1="338.09" y1="964.82" x2="555.48" y2="964.82"/><line class="cls-7" x1="338.09" y1="616.99" x2="555.48" y2="616.99"/><line class="cls-7" x1="338.09" y1="269.17" x2="555.48" y2="269.17"/><line class="cls-7" x1="425.04" y1="443.08" x2="555.48" y2="443.08"/><line class="cls-7" x1="425.04" y1="790.9" x2="555.48" y2="790.9"/></g><rect class="cls-1" x="316.35" y="29" width="391.3" height="1000"/></g><rect class="cls-1" x="316.35" y="29" width="391.3" height="1000"/></g></svg>