<svg id="Layer_1" data-name="Layer 1" xmlns="http://www.w3.org/2000/svg" viewBox="0 0 256 256"><defs><style>.cls-1{fill:#e72101;stroke-width:7px;}.cls-1,.cls-2{stroke:#fff;stroke-miterlimit:10;}.cls-2{fill:none;stroke-width:6px;}</style></defs><title>iconSheet</title><path class="cls-1" d="M198.77,86c0,39.22-71,148.09-71,148.09s-71-108.86-71-148.09a71,71,0,1,1,142,0Z"/><path class="cls-2" d="M84.61,124.21c30.06-13,32.5-35.12,32.5-35.12a9.82,9.82,0,0,1,5.35-.93c2.66.45,4.68,2.86,5.77,2a11.75,11.75,0,0,1,6.2-2.11,6.49,6.49,0,0,1,3.82,1s2.44,22.09,32.5,35.12"/><path class="cls-2" d="M123,89V77.66l-1.21.14a6.67,6.67,0,0,1-2.51-.11,8.88,8.88,0,0,1-4.67-2.08,11.33,11.33,0,0,1-15.89-2.88,7.16,7.16,0,0,1-3.19.74A7.25,7.25,0,1,1,98.8,59.76a11.37,11.37,0,0,1,9.31-4.84,11.68,11.68,0,0,1,1.28.07.57.57,0,0,1,0-.08A11.38,11.38,0,0,1,129,47a8.5,8.5,0,0,1,3.83-.9,8.61,8.61,0,0,1,8.62,8.62c0,.11,0,.21,0,.31a11.38,11.38,0,0,1,4.43,4.32,8.63,8.63,0,0,1,7.29,1.86,6.42,6.42,0,1,1,1.83,11,8.62,8.62,0,0,1-12.74,2.33c-1.79,1.18-3.56,2.55-5.41,3a8.37,8.37,0,0,1-3.67.35c-.26,0-1.12-.23-1.12-.23V89"/></svg>