<svg id="Layer_1" data-name="Layer 1" xmlns="http://www.w3.org/2000/svg" viewBox="0 0 512 512"><defs><style>.cls-1{fill:#fff;}</style></defs><title>iconLogoWhite</title><path class="cls-1" d="M126.05,140.78c-1,.06-2,.07-3.06,0a7,7,0,0,0,1.11,1c.2.14.41.28.62.4a6.86,6.86,0,0,0,1.36.6,6.37,6.37,0,0,0,.72.19l.39.07C126.79,142.32,126.41,141.55,126.05,140.78Zm0,0c-1,.06-2,.07-3.06,0a7,7,0,0,0,1.11,1c.2.14.41.28.62.4a6.86,6.86,0,0,0,1.36.6,6.37,6.37,0,0,0,.72.19l.39.07C126.79,142.32,126.41,141.55,126.05,140.78Zm0,0c-1,.06-2,.07-3.06,0a7,7,0,0,0,1.11,1c.2.14.41.28.62.4a6.86,6.86,0,0,0,1.36.6,6.37,6.37,0,0,0,.72.19l.39.07C126.79,142.32,126.41,141.55,126.05,140.78Zm27.82,16.47a.94.94,0,0,0-.53-.23l.78.67A.76.76,0,0,0,153.87,157.25Zm70-64.75s0,0,0,0h0c-1.87,1.7-2.66,4.5-4.86,5.76a9.09,9.09,0,0,1-3.65.9l-4.17.45a7.1,7.1,0,0,0-3.43,1c-.75.53-1.54,1.39-2.38,1,.42-.39.09-1.18-.46-1.37a2.06,2.06,0,0,0-1.64.36c-1.77,1.07-3.2,3-5.26,3.09,0-.63,0-1.26,0-1.89a11.32,11.32,0,0,0-3.46,3.36,6.71,6.71,0,0,1-1.16,1.53,1.64,1.64,0,0,1-1.78.31c-.94-.51-.74-1.9-.4-2.91a1.4,1.4,0,0,1,.41-.74,1.6,1.6,0,0,1,.72-.26c2.92-.62,5.21-3,8.1-3.73,1.75-.45,3.6-.3,5.37-.68a10,10,0,0,0,4.71-2.58,1.59,1.59,0,0,1,.55-.41,1.78,1.78,0,0,1,.69,0c2.29.11,4.37-1.23,6.27-2.52a12.58,12.58,0,0,0,4-3.68,31.51,31.51,0,0,0-3.38-4l-.13-.13c-1.42.63-2.85,1.22-4.3,1.77q-4.17,1.59-8.48,2.77c-1.44.39-2.88.74-4.33,1.06-.88.19-1.79.39-2.67.65a8.86,8.86,0,0,0-3.18,1.57,6.24,6.24,0,0,0-.64.62,6,6,0,0,0-.49.64,10,10,0,0,0-.75,1.41c-.21.49-.4,1-.6,1.51a14.26,14.26,0,0,1-1,2.21A8.05,8.05,0,0,1,183.1,103a9.35,9.35,0,0,0,1.06-2,9.81,9.81,0,0,0,.2-6.61,14.33,14.33,0,0,0-2.7.1,14.74,14.74,0,0,0-7.37,3.16l4.24.2a9.31,9.31,0,0,1-.88,2.11,9.59,9.59,0,0,1-5.16,4.3c1.31,3.38.46,6.78-1.42,9.91a24.13,24.13,0,0,1-1.59,2.29c-.29.37-.59.74-.9,1.1-.71.81-1.46,1.6-2.23,2.35a31.92,31.92,0,0,0,61.29-12.47A31.56,31.56,0,0,0,223.86,92.5Zm-28.14,17.17a2.17,2.17,0,1,1,2.17-2.18A2.17,2.17,0,0,1,195.72,109.67ZM249.07,70l0-.06,0,0L248,70h-.08a63.43,63.43,0,0,0-10.89,1.59q-1.73.32-3.45.66l.12,0h-.12l6.15,1.28.24.05.16,0a5.06,5.06,0,0,1-.09.54,5.84,5.84,0,0,1-.13.57,3.48,3.48,0,0,1-.17.55,7.63,7.63,0,0,1-.75,1.55,7.75,7.75,0,0,1-.67.95l-.15.17c-.1.11-.19.22-.3.33a8.83,8.83,0,0,1-4,2.42l-.37.1c-.25,0-.5.1-.76.13l-.38,0a6.55,6.55,0,0,1-.77,0,5.64,5.64,0,0,0,2.17-4.36,86,86,0,0,1-7.8,4.86c.65.75,1.26,1.52,1.85,2.32a6.24,6.24,0,0,0,.57-.45c.56-.53,1.16-1.29,1.91-1.11.58.15.86.79,1.29,1.21,1.47,1.45,4.19,0,6,1.12,0,.39-.48.59-.87.68L233.8,86a9.08,9.08,0,0,1-2.52.4,11.4,11.4,0,0,1-1.82-.26A39.91,39.91,0,1,1,160,125.29c-6.71,5.26-14,10.1-21.81,12.93a65.12,65.12,0,0,0,12.13,16,2.39,2.39,0,0,1,.74-1.16c.55-.48,1.21-1.07,1.06-1.78s-1.25-1-1.79-1.67a2.35,2.35,0,0,1,.21-2.79c.6-.81,1.45-1.41,2-2.23,1-1.39,1.29-3.41,2.81-4.2a2.47,2.47,0,0,1,3.59,2.5,5.08,5.08,0,0,1-1,2.1,11.41,11.41,0,0,1-2.26,2.68c-.53.41-1.19.81-1.3,1.48-.16,1,1,1.66,2,1.7a8.93,8.93,0,0,1,2.93.12c.52.2,1,.76.79,1.28-.1.27-.37.51-.29.79a.63.63,0,0,0,.19.27c.9.82,2.63.71,3,1.87a2.16,2.16,0,0,1,.06.88l-.09,1.64a1.71,1.71,0,0,1-.58,1.46c-.19.11-.43.16-.56.33s.06.74,0,1.12a.93.93,0,0,1-.81.78,2.35,2.35,0,0,1-1.19-.2,1.38,1.38,0,0,1-.58-.32c-.54-.56,0-1.52-.3-2.24-.14-.38-.47-.65-.64-1a5.38,5.38,0,0,1-.18-1.71,2.87,2.87,0,0,0-1.92-2.2,4.51,4.51,0,0,0-3,.12c-.06.63.85.83,1.24,1.33s.17,1.34.2,2a2.62,2.62,0,0,0,.46,1.32,0,0,0,0,1,0,0,67.46,67.46,0,0,0,6.85,4.76,3,3,0,0,1,.46-.41,1.17,1.17,0,0,1,1.4,0c-.07.45-.14.9-.2,1.35A65.19,65.19,0,0,0,249.07,70Zm-95.2,87.25a.94.94,0,0,0-.53-.23l.78.67A.76.76,0,0,0,153.87,157.25Zm-27.82-16.47c-1,.06-2,.07-3.06,0a7,7,0,0,0,1.11,1c.2.14.41.28.62.4a6.86,6.86,0,0,0,1.36.6,6.37,6.37,0,0,0,.72.19l.39.07C126.79,142.32,126.41,141.55,126.05,140.78Zm0,0c-1,.06-2,.07-3.06,0a7,7,0,0,0,1.11,1c.2.14.41.28.62.4a6.86,6.86,0,0,0,1.36.6,6.37,6.37,0,0,0,.72.19l.39.07C126.79,142.32,126.41,141.55,126.05,140.78Zm27.82,16.47a.94.94,0,0,0-.53-.23l.78.67A.76.76,0,0,0,153.87,157.25Zm70-64.75s0,0,0,0h0c-1.87,1.7-2.66,4.5-4.86,5.76a9.09,9.09,0,0,1-3.65.9l-4.17.45a7.1,7.1,0,0,0-3.43,1c-.75.53-1.54,1.39-2.38,1,.42-.39.09-1.18-.46-1.37a2.06,2.06,0,0,0-1.64.36c-1.77,1.07-3.2,3-5.26,3.09,0-.63,0-1.26,0-1.89a11.32,11.32,0,0,0-3.46,3.36,6.71,6.71,0,0,1-1.16,1.53,1.64,1.64,0,0,1-1.78.31c-.94-.51-.74-1.9-.4-2.91a1.4,1.4,0,0,1,.41-.74,1.6,1.6,0,0,1,.72-.26c2.92-.62,5.21-3,8.1-3.73,1.75-.45,3.6-.3,5.37-.68a10,10,0,0,0,4.71-2.58,1.59,1.59,0,0,1,.55-.41,1.78,1.78,0,0,1,.69,0c2.29.11,4.37-1.23,6.27-2.52a12.58,12.58,0,0,0,4-3.68,31.51,31.51,0,0,0-3.38-4l-.13-.13c-1.42.63-2.85,1.22-4.3,1.77q-4.17,1.59-8.48,2.77c-1.44.39-2.88.74-4.33,1.06-.88.19-1.79.39-2.67.65a8.86,8.86,0,0,0-3.18,1.57,6.24,6.24,0,0,0-.64.62,6,6,0,0,0-.49.64,10,10,0,0,0-.75,1.41c-.21.49-.4,1-.6,1.51a14.26,14.26,0,0,1-1,2.21A8.05,8.05,0,0,1,183.1,103a9.35,9.35,0,0,0,1.06-2,9.81,9.81,0,0,0,.2-6.61,14.33,14.33,0,0,0-2.7.1,14.74,14.74,0,0,0-7.37,3.16l4.24.2a9.31,9.31,0,0,1-.88,2.11,9.59,9.59,0,0,1-5.16,4.3c1.31,3.38.46,6.78-1.42,9.91a24.13,24.13,0,0,1-1.59,2.29c-.29.37-.59.74-.9,1.1-.71.81-1.46,1.6-2.23,2.35a31.92,31.92,0,0,0,61.29-12.47A31.56,31.56,0,0,0,223.86,92.5Zm-28.14,17.17a2.17,2.17,0,1,1,2.17-2.18A2.17,2.17,0,0,1,195.72,109.67ZM262.78,69h-.08l0,.06.05.08c.53.92,1,1.94,1.53,2.89a14.4,14.4,0,0,1,3.57-2.35c.41-.19.83-.44,1.26-.59C267,69,264.89,69,262.78,69ZM130.86,105.51a19.2,19.2,0,0,0-.13,2,65.78,65.78,0,0,0,.09,6.6,189.44,189.44,0,0,1,27.45-20.42,39.78,39.78,0,0,1,6.18-11A194.6,194.6,0,0,0,130.86,105.51ZM451.28,254.67C451.28,147.12,364.15,60.1,256.61,60a36.76,36.76,0,0,1,4.31,6H261c2.48,0,4.93.24,7.38.38a188.71,188.71,0,0,1,28.94,4.13c1.88.42,3.75.88,5.61,1.35a7,7,0,0,1-2.35.51q-.66,0-1.32,0c-1.32,0-2.64-.08-4-.2-2.64-.23-5.28-.63-7.9-.82-.88-.06-1.75-.1-2.62-.11-.44,0-.87,0-1.31,0a22.68,22.68,0,0,0-2.59.25q-.65.09-1.29.24c-4.49,1-8.85,3.69-13.23,4.51a77.21,77.21,0,0,1-113.88,95.17,6,6,0,0,0-.46.66,6.48,6.48,0,0,1-.69,1.09,1.19,1.19,0,0,1-1.15.4,1.11,1.11,0,0,1-.66-1.19,2.83,2.83,0,0,1,.62-1.31,10.41,10.41,0,0,1,.67-.82,77.74,77.74,0,0,1-23.5-27,3.89,3.89,0,0,0-1.05.44,4.91,4.91,0,0,0-1,.9,6.68,6.68,0,0,0-1.12,1.91,10.51,10.51,0,0,0-.6,4.75,9.86,9.86,0,0,0,.28,1.55c1.09,4,3.5,8,2.35,12a10.33,10.33,0,0,1-2.26,3.82c-.33.37-.68.74-1,1.09a33.37,33.37,0,0,1-6.75,5.18c-.61.36-1.23.7-1.87,1a33,33,0,0,1-3.92,1.67c-.67.24-1.35.46-2,.65a1.59,1.59,0,0,0,.36-.23,1.47,1.47,0,0,0,.45-.61,1.56,1.56,0,0,0,.1-.37,2.65,2.65,0,0,0-.29-1.6,2.71,2.71,0,0,0-2.79-1.67c-2.37.48-3.45,3.43-3,5.81a10.3,10.3,0,0,0,.51,1.72c.66,1.68,1.68,3.23,2.44,4.88a16.9,16.9,0,0,1,1.48,5.75c0,.49.06,1,.06,1.49a17.25,17.25,0,0,1-.28,3c-.09.49-.21,1-.34,1.46-.54-.29-1.07-.6-1.59-.92a33.28,33.28,0,0,1-8.23-7.23c-.39-.47-.76-1-1.12-1.45a9.52,9.52,0,0,1-1.36-2.4,5.17,5.17,0,0,1-.22-.88,7.85,7.85,0,0,1,.51-3.57c.05-.16.1-.33.16-.49l6.09-18.26a25.09,25.09,0,0,1-3.65.63c-.41.05-.82.08-1.23.1l3.27-5.9a1.14,1.14,0,0,0-.53-.08.86.86,0,0,0-.44.15,2.77,2.77,0,0,0-.89,1.09,19.65,19.65,0,0,1-1.12,2c-.59.8-1.17,1.62-1.74,2.44-1.14,1.63-2.22,3.3-3.25,5s-2,3.4-2.93,5.14a114.92,114.92,0,0,0-10.93,30.62,7.12,7.12,0,0,1-1.51,3A7.28,7.28,0,0,1,73.58,209a187.11,187.11,0,0,1,7.11-22.48c.47-1.22,1-2.42,1.45-3.63q1.48-3.6,3.11-7.13a188.87,188.87,0,0,1,35.07-51.48,75.54,75.54,0,0,1-1.32-7.87A194.24,194.24,0,0,0,61.58,254.5c0,90.61,61.85,166.77,145.62,188.58a146.05,146.05,0,0,1-12.71-10.69l0,0c-3-1.06-6.06-2.19-9-3.39-3.68-1.5-7.11-3-10.69-4.68-1.78-.86-3.86-1.84-5.57-2.83-.9-.52-3.08-3-.22-2.63.79.11,1.89.28,2.15-.48a2.22,2.22,0,0,0,0-1,2.91,2.91,0,0,1,2.44-2.85,8.36,8.36,0,0,1,4,.44l-5.43-8.21a2.16,2.16,0,0,1-.38-1.24c0-.24.23-.52.24-.8h0a138.28,138.28,0,0,1-21.78-75.15,140.82,140.82,0,0,1,1.35-20.35s0-.07,0-.11h0c-2,1-5,.63-5.37-1.51a15.38,15.38,0,0,1-.5-2.29c-.06-2.12-1.41-3.65-2.52-5.44a53.57,53.57,0,0,1-3.71-7.66c-.74-1.69-3.33-4.47-4.3-6-1.9-3.07-.57-4.46-1.55-7.93-.73-2.57-1.78-3.65-.88-6.18,1.17-3.31,5.7-7.81,8.66-9.71a18.41,18.41,0,0,0,7.53-11c.19-.83.38-1.8,1.14-2.19s1.68.76,2.27.15c1.24-1.27,2.61-2,3.4-4.39s1.62-5,3.84-6.16a2.79,2.79,0,0,1,2.22-.23,6.37,6.37,0,0,1,1.43,1c1.88,1.39,5.31,1.78,5.8-.51s-.1-4.43,1.23-6.34,4.36-.86,6-2.5c.46-.45-1.13-2.87-.63-3.29,3.52-2.91,9.54,2.64,14.09,2.22a2.13,2.13,0,0,1,.59,1.65,1.63,1.63,0,0,1,0,.22l0,0C194.54,226.6,199,222,203.75,219c-1.41-1-2.74-1.23-3.68-2.33-.34-.39-.68-1-1.18-1.09a2.46,2.46,0,0,0-1.67.37c-1.68.83-4.31,2.41-5.46.93-.35-.44,0-1.74.3-2.24.49-.94,1.57-1.46,2.08-2.39a3.46,3.46,0,0,0,.3-3.06,5.15,5.15,0,0,0-1.84-1.9c-3-2.19-6.32-4.48-10.06-4.47a18.75,18.75,0,0,0-3.33.44c-.35.07-.77.11-1-.18a1.12,1.12,0,0,1-.06-.77,3.08,3.08,0,0,0-2-3.19c-.11-.83,1-1.16,1.87-1.16.1-.36-.33-.66-.71-.69a3.6,3.6,0,0,1-1.14-.09c-.57-.25-.67-1-1.12-1.46a4.22,4.22,0,0,0-1.58-.67c-.54-.21-1.06-.79-.8-1.31,1.23.32,2.26-.85,3.36-1.48,2.17-1.25,5.42,0,5.91,2.5a21.13,21.13,0,0,1,.15,2.12c.13,1.17.82,2.45,2,2.62a3.73,3.73,0,0,0,2.72-1.24c2.12-1.76,4.1-4.88,6.85-4.64,3.28.29,5.94,2.73,9.1,3.66a74,74,0,0,1,12.23,5c.93.47,1.95,1.06,2.21,2.07a2.64,2.64,0,0,0,.27.93,1.56,1.56,0,0,0,.76.46,23.49,23.49,0,0,1,2.65,1.1l.19.1a140.82,140.82,0,0,1,70.6-19.1c78.09,0,141.62,63.53,141.62,141.63q0,3.68-.18,7.31A193.89,193.89,0,0,0,451.28,254.67ZM117.44,196.06a3,3,0,0,1,1.74-.1,6.87,6.87,0,0,0,1.74.19,1.66,1.66,0,0,0,1.43-.88,1,1,0,0,0-.69-1.34c.1-.35-.16-.69-.18-1,0-.71.79-1.09,1.46-1.35a10.39,10.39,0,0,0,5.07-4.25,20.81,20.81,0,0,1,1.56-2.56c1.49-1.79,4.12-2.46,5.29-4.47a28.71,28.71,0,0,0,1.11-2.89,2.65,2.65,0,0,1,2.31-1.77,2.88,2.88,0,0,0,1.68,2.07,8.46,8.46,0,0,0,2.69.63,1.16,1.16,0,0,1-.52,1.11A5.86,5.86,0,0,1,141,180a5.7,5.7,0,0,0-2.82,3.44,11.51,11.51,0,0,0-.35,4.53,4.74,4.74,0,0,0,.62,2.22c.24.36.57.65.8,1a1.2,1.2,0,0,1,.12,1.22c-.21.36-.66.49-1,.7-1.37.79-1.52,2.66-1.5,4.24a4.33,4.33,0,0,1-.2,1.72,4.43,4.43,0,0,1-1.25,1.58,5.51,5.51,0,0,0-2,3c-.19,1.39.68,2.74.57,4.14a3.84,3.84,0,0,1-2.7,3.15,7.6,7.6,0,0,1-4.33-.08,6.64,6.64,0,0,0-1.86-.35,8.44,8.44,0,0,0-2.47.69,7.72,7.72,0,0,1-2.94.35,2.22,2.22,0,0,1-1.42-.53,2.18,2.18,0,0,1-.38-1.9,5.87,5.87,0,0,0,.2-2c-.19-1-1.13-1.77-1.5-2.75a4.82,4.82,0,0,1-.26-1.37c-.09-1.08-.17-2.16-.22-3.25C116,198.34,116.16,196.62,117.44,196.06Zm-9,26.59a1.2,1.2,0,0,1-.78.37,4,4,0,0,1-2.81-.78,12.27,12.27,0,0,1-2.12-2.08l-2.26-2.61a4.67,4.67,0,0,1-.84-1.19,6.12,6.12,0,0,1-.28-2,9.92,9.92,0,0,0-1.76-5,5.43,5.43,0,0,1-.69-1.13,6,6,0,0,1-.22-1.64c-.24-2.86-2.13-5.34-4.36-7.13a3.42,3.42,0,0,1-.87-.87,3.16,3.16,0,0,1-.16-2.11.83.83,0,0,1,.27-.57.76.76,0,0,1,.45-.07l.61,0a2.63,2.63,0,0,1,3.56,1.42c.09.29.12.58.2.87a3.77,3.77,0,0,0,1.39,2.12c1.17.89,2.77,1,4,1.82a7.89,7.89,0,0,1,2.84,4.23A15.53,15.53,0,0,0,106.8,211c.78,1,1.88,1.76,2.15,3a5,5,0,0,1,.06,1.34q-.16,3.27-.32,6.52A1.55,1.55,0,0,1,108.46,222.65Zm44.5-1.4-14.87,4.41c-1,.29-2,.59-3.05.79s-2.07.27-3.11.36c-2.81.23-5.61.45-8.43.44a33.46,33.46,0,0,0-7.15.3,10.23,10.23,0,0,1-3.13.46,7.2,7.2,0,0,1-3.61-1.94c-.47-.39-1-.9-.9-1.5a1.19,1.19,0,0,1,.46-.74,3.27,3.27,0,0,1,2.42-.65c.85.07,1.68.32,2.53.44,4.43.66,8.72-2,13.2-2,.27,0,.64.12.6.39a.36.36,0,0,1-.16.24,8.23,8.23,0,0,1-1.72.81c-.55.3-.95,1.13-.47,1.55a1.27,1.27,0,0,0,.81.22c1,0,2,.07,3.06,0a39.65,39.65,0,0,0,4.46-.55c5.77-.94,11.6-1.89,16.95-4.24h-.68a33.44,33.44,0,0,1,5.72-.75C155.44,220.44,154.13,220.91,153,221.25ZM149.73,193c-1.61.21-3.38.07-4.68,1a4.8,4.8,0,0,0-1.63,2.8,1.77,1.77,0,0,0,.05,1.32,1.59,1.59,0,0,0,1.75.5,11.1,11.1,0,0,0,3.27-1.89,3.61,3.61,0,0,1,3.57-.56,3.31,3.31,0,0,0-.25,1.28,1.13,1.13,0,0,0,.7,1c.23.07.47,0,.69.11s.45.26.4.49-.29.29-.49.33a3.07,3.07,0,0,1-2.28-.51,1.67,1.67,0,0,0-.54-.33,1.21,1.21,0,0,0-1,.25c-1.38,1-1.61,3-1.35,4.64a7.63,7.63,0,0,0,1.45,3.62,16.94,16.94,0,0,1,1.33,1.61,1.86,1.86,0,0,1,.12,2,3,3,0,0,1-4.08,0,5.54,5.54,0,0,1-.29-1.54c-.23-1.15-1.33-2.12-1.09-3.26.07-.4.31-.74.39-1.14s-.07-.89-.46-1a.69.69,0,0,0-.4,0,2.22,2.22,0,0,0-1.24,2.17,21.51,21.51,0,0,0,.43,2.63,12.67,12.67,0,0,1-.06,2.82,3,3,0,0,1-.88,2.25c-.83.62-2,.23-2.9-.28-.33-.81.37-1.63.7-2.45a6,6,0,0,0,.21-2.54,1.37,1.37,0,0,0-.41-1.08c-.72-.51-1.84.61-2.52.05a40.55,40.55,0,0,1,2.38-7.49,11.9,11.9,0,0,0,.77-1.8c.12-.43.19-.87.27-1.31a11.6,11.6,0,0,1,3.27-6,2.87,2.87,0,0,1,.62-.48,3,3,0,0,1,1.87-.09c2.06.35,4.37.83,6.12-.34.6-.4,1.07-1,1.63-1.43a2.6,2.6,0,0,1,2-.72A9.94,9.94,0,0,1,149.73,193Zm142,10.92a124.78,124.78,0,0,0-62.27,16.55c.48.35,1,.67,1.47,1s1.88,1,1.44,1.5c-1.29,1.6-3.75.39-5.93-.73a127.12,127.12,0,0,0-16.56,12.08,1.07,1.07,0,0,0,.13.19h0a1.22,1.22,0,0,0,.58.87,13.32,13.32,0,0,0,1.9,1c2.2,1.22,2.92,4,3.19,6.48s.25,5.18,1.67,7.25c1.11,1.62,2.82,2.6,4.38,3.81,3.82,3,6.25,7.46,9.22,11.25l.06.08a88.33,88.33,0,1,1,60.72,152.47A85.05,85.05,0,0,1,249.85,407h0a.76.76,0,0,1,0,.15,5.18,5.18,0,0,0-1.74,1.35c-1,1.19-1.11,3.29.18,4.17a5.29,5.29,0,0,0,2.54.6c4.75.46,8.67,3.79,13.09,5.59,6,2.46,12.82,2,19.31,2.84a49.28,49.28,0,0,1,11.53,2.86,4.36,4.36,0,0,1,1.44.78,1.72,1.72,0,0,1,.46.64c.55,1.34-.86,2.6-2,3.47s-2.25,2.61-1.21,3.61a49.86,49.86,0,0,0,8.89.47c-2.46,0-5.24,4-7.46,5-3.34,1.57-8.29,2-11.93,2.49a189,189,0,0,1-25.92,2c-7.28,0-14.56-1.06-21.78-1.06h0a128.11,128.11,0,0,0,18.8,7.5c.81,0,1.62-.07,2.43-.07A194.58,194.58,0,0,0,408,377.13a125.15,125.15,0,0,0,9.36-47.61C417.34,260.25,361,203.88,291.72,203.88Zm0,93.7a31.92,31.92,0,1,0,31.92,31.92A32,32,0,0,0,291.72,297.58Zm-20.65,45.09a1.14,1.14,0,0,1-.36.65,1.27,1.27,0,0,1-.88.17l-.77-.08a.35.35,0,0,1-.22-.1.27.27,0,0,1,0-.15.75.75,0,0,1,.32-.61c.2-.13.47-.18.56-.4s0-.49.13-.65a.53.53,0,0,1,.62,0c.17.14.13.43.31.55a1,1,0,0,1,.29.19A.57.57,0,0,1,271.07,342.67Zm17.57-13.85c-.3.82,0,.77-.66,1.39a5.62,5.62,0,0,1-1.92,1.35,5,5,0,0,0-2.06,1.38c-.22.27-.61.49-.34.72s.81.22,1,.5-.4.57-.63.65a3.9,3.9,0,0,1-1.08,0,2.77,2.77,0,0,0-2.11,1,10.57,10.57,0,0,0-1.73,2.09l-1.19,1.72a4.33,4.33,0,0,1-1.3,1.39,4.42,4.42,0,0,1-1.48.42,3.26,3.26,0,0,1-2.5-.3c-.31-.24-.52-.58-.82-.82-1-.79-2.46-.36-3.61-.85a1,1,0,0,1-.56-.47,1.08,1.08,0,0,1-.09-.54,4.27,4.27,0,0,1,1.56-2.92,10.63,10.63,0,0,1,3-1.66c.86-.35,1.73-.67,2.57-1a37.72,37.72,0,0,0,4.56-2.45,10,10,0,0,0,3.72-3.32c.36-.66.63-1.46,1.31-1.8a2.24,2.24,0,0,1,1.12-.17c.35,0,.76.09.88.41s-.15.69-.34,1-.26.83.09.94a.83.83,0,0,0,.86-.41,1.29,1.29,0,0,1,1-.56,1,1,0,0,1,1,.68A2.85,2.85,0,0,1,288.64,328.82Zm13.56-8.66c-.75,1.29-1.77,2.76-3.27,2.75a1.73,1.73,0,0,0-.85.07c-.53.29-.37,1.07-.54,1.65a2.73,2.73,0,0,1-.93,1.21l-2.85,2.55a.57.57,0,0,0-.11.11,2.17,2.17,0,1,1-3.53-.48.05.05,0,0,1,0,0c-.34-1.65,1.72-1.94,1.69-3.41,0-.88-1.61-1.13-2.22-1.78s-.35-1.31.5-1.55a11.55,11.55,0,0,1,1.18,0c.7-.11.79-.78,1.29-1.79.85-1.72,1.47-2.6.38-4.52-.51-.91-1-2.3-1.47-3.23a12.15,12.15,0,0,1-.78-2.19c-.1-.28-.11-1.81-.38-1.91s-.81-.75-.42-1c1.23-.38,1,.6,1.3.74,1.7.79,2.49,1.46,2.9,3.29a17.41,17.41,0,0,1,.07,2.8c.07.94.46,2.84,1.22,2.29s-.27-2.24.42-2.84,1.21,1,1.15,1.78a15.85,15.85,0,0,0-.34,2.35,2.43,2.43,0,0,0,2.84,2.1c.58-.13,1.09-.47,1.66-.58s1.31.13,1.42.7A1.52,1.52,0,0,1,302.2,320.16Zm-10.48-22.58a31.92,31.92,0,1,0,31.92,31.92A32,32,0,0,0,291.72,297.58Zm-20.65,45.09a1.14,1.14,0,0,1-.36.65,1.27,1.27,0,0,1-.88.17l-.77-.08a.35.35,0,0,1-.22-.1.27.27,0,0,1,0-.15.75.75,0,0,1,.32-.61c.2-.13.47-.18.56-.4s0-.49.13-.65a.53.53,0,0,1,.62,0c.17.14.13.43.31.55a1,1,0,0,1,.29.19A.57.57,0,0,1,271.07,342.67Zm17.57-13.85c-.3.82,0,.77-.66,1.39a5.62,5.62,0,0,1-1.92,1.35,5,5,0,0,0-2.06,1.38c-.22.27-.61.49-.34.72s.81.22,1,.5-.4.57-.63.65a3.9,3.9,0,0,1-1.08,0,2.77,2.77,0,0,0-2.11,1,10.57,10.57,0,0,0-1.73,2.09l-1.19,1.72a4.33,4.33,0,0,1-1.3,1.39,4.42,4.42,0,0,1-1.48.42,3.26,3.26,0,0,1-2.5-.3c-.31-.24-.52-.58-.82-.82-1-.79-2.46-.36-3.61-.85a1,1,0,0,1-.56-.47,1.08,1.08,0,0,1-.09-.54,4.27,4.27,0,0,1,1.56-2.92,10.63,10.63,0,0,1,3-1.66c.86-.35,1.73-.67,2.57-1a37.72,37.72,0,0,0,4.56-2.45,10,10,0,0,0,3.72-3.32c.36-.66.63-1.46,1.31-1.8a2.24,2.24,0,0,1,1.12-.17c.35,0,.76.09.88.41s-.15.69-.34,1-.26.83.09.94a.83.83,0,0,0,.86-.41,1.29,1.29,0,0,1,1-.56,1,1,0,0,1,1,.68A2.85,2.85,0,0,1,288.64,328.82Zm13.56-8.66c-.75,1.29-1.77,2.76-3.27,2.75a1.73,1.73,0,0,0-.85.07c-.53.29-.37,1.07-.54,1.65a2.73,2.73,0,0,1-.93,1.21l-2.85,2.55a.57.57,0,0,0-.11.11,2.17,2.17,0,1,1-3.53-.48.05.05,0,0,1,0,0c-.34-1.65,1.72-1.94,1.69-3.41,0-.88-1.61-1.13-2.22-1.78s-.35-1.31.5-1.55a11.55,11.55,0,0,1,1.18,0c.7-.11.79-.78,1.29-1.79.85-1.72,1.47-2.6.38-4.52-.51-.91-1-2.3-1.47-3.23a12.15,12.15,0,0,1-.78-2.19c-.1-.28-.11-1.81-.38-1.91s-.81-.75-.42-1c1.23-.38,1,.6,1.3.74,1.7.79,2.49,1.46,2.9,3.29a17.41,17.41,0,0,1,.07,2.8c.07.94.46,2.84,1.22,2.29s-.27-2.24.42-2.84,1.21,1,1.15,1.78a15.85,15.85,0,0,0-.34,2.35,2.43,2.43,0,0,0,2.84,2.1c.58-.13,1.09-.47,1.66-.58s1.31.13,1.42.7A1.52,1.52,0,0,1,302.2,320.16Zm-10.48-67a76,76,0,0,0-53.35,21.79l-.37.37c0,9.17-.24,18.68-5.17,26.33-2,3.06-2.91,5.78-4.54,9-1.47,3-6.61,3-9,4-.65.27-1.29-.61-2-.62l-.34,0s0,.07,0,.1a76.38,76.38,0,1,0,74.82-61Zm-66,68.79c-.21.65-.42,1.29-.62,1.94a9.22,9.22,0,0,1-2.4,4.44,2.51,2.51,0,0,1-1.8.7,2.67,2.67,0,0,1-2-2c-.31-1-.34-2-.67-3a7.76,7.76,0,0,0-1.21-2.13c-.41-.55-.87-1.27-.52-1.86s1.4-.9,1.84-.39c.32.36.53.18.91.48s1.46-.09,2-.08c1.4,0,1.33.57,2-.63.48-.82.2-1.44,1-1.94s1.34.86,1.66,1.57A4.09,4.09,0,0,1,225.7,321.91Zm66,47.5a39.92,39.92,0,1,1,39.92-39.91A40,40,0,0,1,291.72,369.41Zm0-71.83a31.92,31.92,0,1,0,31.92,31.92A32,32,0,0,0,291.72,297.58Zm-20.65,45.09a1.14,1.14,0,0,1-.36.65,1.27,1.27,0,0,1-.88.17l-.77-.08a.35.35,0,0,1-.22-.1.27.27,0,0,1,0-.15.75.75,0,0,1,.32-.61c.2-.13.47-.18.56-.4s0-.49.13-.65a.53.53,0,0,1,.62,0c.17.14.13.43.31.55a1,1,0,0,1,.29.19A.57.57,0,0,1,271.07,342.67Zm17.57-13.85c-.3.82,0,.77-.66,1.39a5.62,5.62,0,0,1-1.92,1.35,5,5,0,0,0-2.06,1.38c-.22.27-.61.49-.34.72s.81.22,1,.5-.4.57-.63.65a3.9,3.9,0,0,1-1.08,0,2.77,2.77,0,0,0-2.11,1,10.57,10.57,0,0,0-1.73,2.09l-1.19,1.72a4.33,4.33,0,0,1-1.3,1.39,4.42,4.42,0,0,1-1.48.42,3.26,3.26,0,0,1-2.5-.3c-.31-.24-.52-.58-.82-.82-1-.79-2.46-.36-3.61-.85a1,1,0,0,1-.56-.47,1.08,1.08,0,0,1-.09-.54,4.27,4.27,0,0,1,1.56-2.92,10.63,10.63,0,0,1,3-1.66c.86-.35,1.73-.67,2.57-1a37.72,37.72,0,0,0,4.56-2.45,10,10,0,0,0,3.72-3.32c.36-.66.63-1.46,1.31-1.8a2.24,2.24,0,0,1,1.12-.17c.35,0,.76.09.88.41s-.15.69-.34,1-.26.83.09.94a.83.83,0,0,0,.86-.41,1.29,1.29,0,0,1,1-.56,1,1,0,0,1,1,.68A2.85,2.85,0,0,1,288.64,328.82Zm13.56-8.66c-.75,1.29-1.77,2.76-3.27,2.75a1.73,1.73,0,0,0-.85.07c-.53.29-.37,1.07-.54,1.65a2.73,2.73,0,0,1-.93,1.21l-2.85,2.55a.57.57,0,0,0-.11.11,2.17,2.17,0,1,1-3.53-.48.05.05,0,0,1,0,0c-.34-1.65,1.72-1.94,1.69-3.41,0-.88-1.61-1.13-2.22-1.78s-.35-1.31.5-1.55a11.55,11.55,0,0,1,1.18,0c.7-.11.79-.78,1.29-1.79.85-1.72,1.47-2.6.38-4.52-.51-.91-1-2.3-1.47-3.23a12.15,12.15,0,0,1-.78-2.19c-.1-.28-.11-1.81-.38-1.91s-.81-.75-.42-1c1.23-.38,1,.6,1.3.74,1.7.79,2.49,1.46,2.9,3.29a17.41,17.41,0,0,1,.07,2.8c.07.94.46,2.84,1.22,2.29s-.27-2.24.42-2.84,1.21,1,1.15,1.78a15.85,15.85,0,0,0-.34,2.35,2.43,2.43,0,0,0,2.84,2.1c.58-.13,1.09-.47,1.66-.58s1.31.13,1.42.7A1.52,1.52,0,0,1,302.2,320.16Zm-10.48-22.58a31.92,31.92,0,1,0,31.92,31.92A32,32,0,0,0,291.72,297.58Zm-20.65,45.09a1.14,1.14,0,0,1-.36.65,1.27,1.27,0,0,1-.88.17l-.77-.08a.35.35,0,0,1-.22-.1.27.27,0,0,1,0-.15.75.75,0,0,1,.32-.61c.2-.13.47-.18.56-.4s0-.49.13-.65a.53.53,0,0,1,.62,0c.17.14.13.43.31.55a1,1,0,0,1,.29.19A.57.57,0,0,1,271.07,342.67Zm17.57-13.85c-.3.82,0,.77-.66,1.39a5.62,5.62,0,0,1-1.92,1.35,5,5,0,0,0-2.06,1.38c-.22.27-.61.49-.34.72s.81.22,1,.5-.4.57-.63.65a3.9,3.9,0,0,1-1.08,0,2.77,2.77,0,0,0-2.11,1,10.57,10.57,0,0,0-1.73,2.09l-1.19,1.72a4.33,4.33,0,0,1-1.3,1.39,4.42,4.42,0,0,1-1.48.42,3.26,3.26,0,0,1-2.5-.3c-.31-.24-.52-.58-.82-.82-1-.79-2.46-.36-3.61-.85a1,1,0,0,1-.56-.47,1.08,1.08,0,0,1-.09-.54,4.27,4.27,0,0,1,1.56-2.92,10.63,10.63,0,0,1,3-1.66c.86-.35,1.73-.67,2.57-1a37.72,37.72,0,0,0,4.56-2.45,10,10,0,0,0,3.72-3.32c.36-.66.63-1.46,1.31-1.8a2.24,2.24,0,0,1,1.12-.17c.35,0,.76.09.88.41s-.15.69-.34,1-.26.83.09.94a.83.83,0,0,0,.86-.41,1.29,1.29,0,0,1,1-.56,1,1,0,0,1,1,.68A2.85,2.85,0,0,1,288.64,328.82Zm13.56-8.66c-.75,1.29-1.77,2.76-3.27,2.75a1.73,1.73,0,0,0-.85.07c-.53.29-.37,1.07-.54,1.65a2.73,2.73,0,0,1-.93,1.21l-2.85,2.55a.57.57,0,0,0-.11.11,2.17,2.17,0,1,1-3.53-.48.05.05,0,0,1,0,0c-.34-1.65,1.72-1.94,1.69-3.41,0-.88-1.61-1.13-2.22-1.78s-.35-1.31.5-1.55a11.55,11.55,0,0,1,1.18,0c.7-.11.79-.78,1.29-1.79.85-1.72,1.47-2.6.38-4.52-.51-.91-1-2.3-1.47-3.23a12.15,12.15,0,0,1-.78-2.19c-.1-.28-.11-1.81-.38-1.91s-.81-.75-.42-1c1.23-.38,1,.6,1.3.74,1.7.79,2.49,1.46,2.9,3.29a17.41,17.41,0,0,1,.07,2.8c.07.94.46,2.84,1.22,2.29s-.27-2.24.42-2.84,1.21,1,1.15,1.78a15.85,15.85,0,0,0-.34,2.35,2.43,2.43,0,0,0,2.84,2.1c.58-.13,1.09-.47,1.66-.58s1.31.13,1.42.7A1.52,1.52,0,0,1,302.2,320.16Zm-10.48-22.58a31.92,31.92,0,1,0,31.92,31.92A32,32,0,0,0,291.72,297.58Zm-20.65,45.09a1.14,1.14,0,0,1-.36.65,1.27,1.27,0,0,1-.88.17l-.77-.08a.35.35,0,0,1-.22-.1.27.27,0,0,1,0-.15.75.75,0,0,1,.32-.61c.2-.13.47-.18.56-.4s0-.49.13-.65a.53.53,0,0,1,.62,0c.17.14.13.43.31.55a1,1,0,0,1,.29.19A.57.57,0,0,1,271.07,342.67Zm17.57-13.85c-.3.82,0,.77-.66,1.39a5.62,5.62,0,0,1-1.92,1.35,5,5,0,0,0-2.06,1.38c-.22.27-.61.49-.34.72s.81.22,1,.5-.4.57-.63.65a3.9,3.9,0,0,1-1.08,0,2.77,2.77,0,0,0-2.11,1,10.57,10.57,0,0,0-1.73,2.09l-1.19,1.72a4.33,4.33,0,0,1-1.3,1.39,4.42,4.42,0,0,1-1.48.42,3.26,3.26,0,0,1-2.5-.3c-.31-.24-.52-.58-.82-.82-1-.79-2.46-.36-3.61-.85a1,1,0,0,1-.56-.47,1.08,1.08,0,0,1-.09-.54,4.27,4.27,0,0,1,1.56-2.92,10.63,10.63,0,0,1,3-1.66c.86-.35,1.73-.67,2.57-1a37.72,37.72,0,0,0,4.56-2.45,10,10,0,0,0,3.72-3.32c.36-.66.63-1.46,1.31-1.8a2.24,2.24,0,0,1,1.12-.17c.35,0,.76.09.88.41s-.15.69-.34,1-.26.83.09.94a.83.83,0,0,0,.86-.41,1.29,1.29,0,0,1,1-.56,1,1,0,0,1,1,.68A2.85,2.85,0,0,1,288.64,328.82Zm13.56-8.66c-.75,1.29-1.77,2.76-3.27,2.75a1.73,1.73,0,0,0-.85.07c-.53.29-.37,1.07-.54,1.65a2.73,2.73,0,0,1-.93,1.21l-2.85,2.55a.57.57,0,0,0-.11.11,2.17,2.17,0,1,1-3.53-.48.05.05,0,0,1,0,0c-.34-1.65,1.72-1.94,1.69-3.41,0-.88-1.61-1.13-2.22-1.78s-.35-1.31.5-1.55a11.55,11.55,0,0,1,1.18,0c.7-.11.79-.78,1.29-1.79.85-1.72,1.47-2.6.38-4.52-.51-.91-1-2.3-1.47-3.23a12.15,12.15,0,0,1-.78-2.19c-.1-.28-.11-1.81-.38-1.91s-.81-.75-.42-1c1.23-.38,1,.6,1.3.74,1.7.79,2.49,1.46,2.9,3.29a17.41,17.41,0,0,1,.07,2.8c.07.94.46,2.84,1.22,2.29s-.27-2.24.42-2.84,1.21,1,1.15,1.78a15.85,15.85,0,0,0-.34,2.35,2.43,2.43,0,0,0,2.84,2.1c.58-.13,1.09-.47,1.66-.58s1.31.13,1.42.7A1.52,1.52,0,0,1,302.2,320.16Zm-98.95,9.28a106.57,106.57,0,0,1,1.75-18h0c0-.54-1-1.19-1.4-2a32.18,32.18,0,0,0-1.2-3,2.34,2.34,0,0,0-2.71-1.24,5.2,5.2,0,0,0-.37-2.67,2,2,0,0,1-3,1.3,5.59,5.59,0,0,0,.3-5.59c-1.19.53-.7,2.4-1.42,3.48-.84,1.28-2.95.8-3.94-.38s-1.33-2.76-2.15-4c-1.54-2.43-4.59-3.54-7.46-3.5s-5.63,1.1-8.33,2.1c-1,.37-2,1.16-3,1.16h0a125.81,125.81,0,0,0,15.25,99.86l.09.13a18.21,18.21,0,0,0,2.14-.47c1-.13,2.25-.7,2.1-1.68,3.68.38,7.71.64,10.75-1.45,1.11-.77,2.05-1.86,3.33-2.33a7.81,7.81,0,0,1,3.41-.22L222.19,392a28.56,28.56,0,0,1,6,.93c1.11.35,2.18.65,3.26,1.06A88.17,88.17,0,0,1,203.25,329.44ZM197.94,246a5.54,5.54,0,0,0,1.28.16c1.92-.27,3.19-2,3.63-3.93a6,6,0,0,0,.15-1.58C201.27,242.38,199.58,244.18,197.94,246ZM240.83,60.44h-.17a192.92,192.92,0,0,0-40.15,7.43,39.2,39.2,0,0,1,11.95,3.38l.14.07c3.77-.9,7.59-1.94,11.44-2.61,7.2-1.24,14.55-1.71,22-2.69A62.59,62.59,0,0,0,240.83,60.44ZM262.78,69h-.08l0,.06.05.08c.53.92,1,1.94,1.53,2.89a14.4,14.4,0,0,1,3.57-2.35c.41-.19.83-.44,1.26-.59C267,69,264.89,69,262.78,69Zm0,0h-.08l0,.06.05.08c.53.92,1,1.94,1.53,2.89a14.4,14.4,0,0,1,3.57-2.35c.41-.19.83-.44,1.26-.59C267,69,264.89,69,262.78,69Zm-13.71,1,0-.06,0,0L248,70h-.08a63.43,63.43,0,0,0-10.89,1.59q-1.73.32-3.45.66s0,0,0,0h0l6.15,1.28.24.05v0a2.44,2.44,0,0,1,0,.54,5.65,5.65,0,0,1-.09.57,3.43,3.43,0,0,1-.15.55,7.59,7.59,0,0,1-.74,1.55,7.75,7.75,0,0,1-.67.95l-.14.17c-.1.11-.19.22-.3.33a8.83,8.83,0,0,1-4,2.42l-.37.1c-.25,0-.5.1-.76.13l-.38,0a6.55,6.55,0,0,1-.77,0,5.64,5.64,0,0,0,2.17-4.36,86,86,0,0,1-7.8,4.86c.65.75,1.26,1.52,1.85,2.32a6.24,6.24,0,0,0,.57-.45c.56-.53,1.16-1.29,1.91-1.11.58.15.86.79,1.29,1.21,1.47,1.45,4.19,0,6,1.12,0,.39-.48.59-.87.68L233.8,86a9.08,9.08,0,0,1-2.52.4,11.4,11.4,0,0,1-1.82-.26A39.91,39.91,0,1,1,160,125.29c-6.71,5.26-14,10.1-21.81,12.93a65.12,65.12,0,0,0,12.13,16,2.39,2.39,0,0,1,.74-1.16c.55-.48,1.21-1.07,1.06-1.78s-1.25-1-1.79-1.67a2.35,2.35,0,0,1,.21-2.79c.6-.81,1.45-1.41,2-2.23,1-1.39,1.29-3.41,2.81-4.2a2.47,2.47,0,0,1,3.59,2.5,5.08,5.08,0,0,1-1,2.1,11.41,11.41,0,0,1-2.26,2.68c-.53.41-1.19.81-1.3,1.48-.16,1,1,1.66,2,1.7a8.93,8.93,0,0,1,2.93.12c.52.2,1,.76.79,1.28-.1.27-.37.51-.29.79a.63.63,0,0,0,.19.27c.9.82,2.63.71,3,1.87a2.16,2.16,0,0,1,.06.88l-.09,1.64a1.71,1.71,0,0,1-.58,1.46c-.19.11-.43.16-.56.33s.06.74,0,1.12a.93.93,0,0,1-.81.78,2.35,2.35,0,0,1-1.19-.2,1.38,1.38,0,0,1-.58-.32c-.54-.56,0-1.52-.3-2.24-.14-.38-.47-.65-.64-1a5.38,5.38,0,0,1-.18-1.71,2.87,2.87,0,0,0-1.92-2.2,4.51,4.51,0,0,0-3,.12c-.06.63.85.83,1.24,1.33s.17,1.34.2,2a2.62,2.62,0,0,0,.46,1.32,0,0,0,0,1,0,0,67.46,67.46,0,0,0,6.85,4.76,3,3,0,0,1,.46-.41,1.17,1.17,0,0,1,1.4,0c-.07.45-.14.9-.2,1.35A65.19,65.19,0,0,0,249.07,70Zm-53.35,5.77A31.66,31.66,0,0,0,172.2,85.94a182.92,182.92,0,0,1,21.25-8.86,12,12,0,0,1,3.7-1.08C196.68,76,196.2,75.77,195.72,75.77Zm-41.85,81.48a.94.94,0,0,0-.53-.23l.78.67A.76.76,0,0,0,153.87,157.25Zm-27.82-16.47c-1,.06-2,.07-3.06,0a7,7,0,0,0,1.11,1c.2.14.41.28.62.4a6.86,6.86,0,0,0,1.36.6,6.37,6.37,0,0,0,.72.19l.39.07C126.79,142.32,126.41,141.55,126.05,140.78Zm0,0c-1,.06-2,.07-3.06,0a7,7,0,0,0,1.11,1c.2.14.41.28.62.4a6.86,6.86,0,0,0,1.36.6,6.37,6.37,0,0,0,.72.19l.39.07C126.79,142.32,126.41,141.55,126.05,140.78ZM223.86,92.5s0,0,0,0h0c-1.87,1.7-2.66,4.5-4.86,5.76a9.09,9.09,0,0,1-3.65.9l-4.17.45a7.1,7.1,0,0,0-3.43,1c-.75.53-1.54,1.39-2.38,1,.42-.39.09-1.18-.46-1.37a2.06,2.06,0,0,0-1.64.36c-1.77,1.07-3.2,3-5.26,3.09,0-.63,0-1.26,0-1.89a11.32,11.32,0,0,0-3.46,3.36,6.71,6.71,0,0,1-1.16,1.53,1.64,1.64,0,0,1-1.78.31c-.94-.51-.74-1.9-.4-2.91a1.4,1.4,0,0,1,.41-.74,1.6,1.6,0,0,1,.72-.26c2.92-.62,5.21-3,8.1-3.73,1.75-.45,3.6-.3,5.37-.68a10,10,0,0,0,4.71-2.58,1.59,1.59,0,0,1,.55-.41,1.78,1.78,0,0,1,.69,0c2.29.11,4.37-1.23,6.27-2.52a12.58,12.58,0,0,0,4-3.68,31.51,31.51,0,0,0-3.38-4l-.13-.13c-1.42.63-2.85,1.22-4.3,1.77q-4.17,1.59-8.48,2.77c-1.44.39-2.88.74-4.33,1.06-.88.19-1.79.39-2.67.65a8.86,8.86,0,0,0-3.18,1.57,6.24,6.24,0,0,0-.64.62,6,6,0,0,0-.49.64,10,10,0,0,0-.75,1.41c-.21.49-.4,1-.6,1.51a14.26,14.26,0,0,1-1,2.21A8.05,8.05,0,0,1,183.1,103a9.35,9.35,0,0,0,1.06-2,9.81,9.81,0,0,0,.2-6.61,14.33,14.33,0,0,0-2.7.1,14.74,14.74,0,0,0-7.37,3.16l4.24.2a9.31,9.31,0,0,1-.88,2.11,9.59,9.59,0,0,1-5.16,4.3c1.31,3.38.46,6.78-1.42,9.91a24.13,24.13,0,0,1-1.59,2.29c-.29.37-.59.74-.9,1.1-.71.81-1.46,1.6-2.23,2.35a31.92,31.92,0,0,0,61.29-12.47A31.56,31.56,0,0,0,223.86,92.5Zm-28.14,17.17a2.17,2.17,0,1,1,2.17-2.18A2.17,2.17,0,0,1,195.72,109.67ZM249.07,70l0-.06,0,0L248,70h-.08c-3.65.4-7.28.94-10.89,1.59q-1.73.32-3.45.66s0,0,0,0h0c2,.43,4.15.86,6.07,1.29l.24.05v0a2.44,2.44,0,0,1,0,.54,5.65,5.65,0,0,1-.09.57,3.43,3.43,0,0,1-.15.55,7.59,7.59,0,0,1-.74,1.55,7.75,7.75,0,0,1-.67.95l-.14.17c-.1.11-.19.22-.3.33a8.83,8.83,0,0,1-4,2.42l-.37.1c-.25,0-.5.1-.76.13l-.38,0a6.55,6.55,0,0,1-.77,0,5.64,5.64,0,0,0,2.17-4.36,86,86,0,0,1-7.8,4.86c.65.75,1.26,1.52,1.85,2.32a6.24,6.24,0,0,0,.57-.45c.56-.53,1.16-1.29,1.91-1.11.58.15.86.79,1.29,1.21,1.47,1.45,4.19,0,6,1.12,0,.39-.48.59-.87.68L233.8,86a9.08,9.08,0,0,1-2.52.4,11.4,11.4,0,0,1-1.82-.26A39.91,39.91,0,1,1,160,125.29c-6.71,5.26-14,10.1-21.81,12.93a65.12,65.12,0,0,0,12.13,16,2.39,2.39,0,0,1,.74-1.16c.55-.48,1.21-1.07,1.06-1.78s-1.25-1-1.79-1.67a2.35,2.35,0,0,1,.21-2.79c.6-.81,1.45-1.41,2-2.23,1-1.39,1.29-3.41,2.81-4.2a2.47,2.47,0,0,1,3.59,2.5,5.08,5.08,0,0,1-1,2.1,11.41,11.41,0,0,1-2.26,2.68c-.53.41-1.19.81-1.3,1.48-.16,1,1,1.66,2,1.7a8.93,8.93,0,0,1,2.93.12c.52.2,1,.76.79,1.28-.1.27-.37.51-.29.79a.63.63,0,0,0,.19.27c.9.82,2.63.71,3,1.87a2.16,2.16,0,0,1,.06.88l-.09,1.64a1.71,1.71,0,0,1-.58,1.46c-.19.11-.43.16-.56.33s.06.74,0,1.12a.93.93,0,0,1-.81.78,2.35,2.35,0,0,1-1.19-.2,1.38,1.38,0,0,1-.58-.32c-.54-.56,0-1.52-.3-2.24-.14-.38-.47-.65-.64-1a5.38,5.38,0,0,1-.18-1.71,2.87,2.87,0,0,0-1.92-2.2,4.51,4.51,0,0,0-3,.12c-.06.63.85.83,1.24,1.33s.17,1.34.2,2a2.62,2.62,0,0,0,.46,1.32,0,0,0,0,1,0,0,67.46,67.46,0,0,0,6.85,4.76,3,3,0,0,1,.46-.41,1.17,1.17,0,0,1,1.4,0c-.07.45-.14.9-.2,1.35A65.19,65.19,0,0,0,249.07,70Zm-123,70.78c-1,.06-2,.07-3.06,0a7,7,0,0,0,1.11,1c.2.14.41.28.62.4a6.86,6.86,0,0,0,1.36.6,6.37,6.37,0,0,0,.72.19l.39.07C126.79,142.32,126.41,141.55,126.05,140.78Z"/><path class="cls-1" d="M231,265v.1l.1-.1Zm-.06.16.06.08v-.14Z"/><path class="cls-1" d="M119,116.36h0l.82-.82Zm11.9-10.5.1-.06v0ZM260.94,66l.06.1V66ZM127.19,143.07l.12.23a3.44,3.44,0,0,1,1-.14A6.59,6.59,0,0,1,127.19,143.07Z"/></svg>