<svg id="Layer_1" data-name="Layer 1" xmlns="http://www.w3.org/2000/svg" viewBox="0 0 256 256"><defs><style>.cls-1{fill:#f98800;stroke-width:7px;}.cls-1,.cls-2{stroke:#fff;stroke-miterlimit:10;}.cls-2{fill:none;stroke-width:6px;}</style></defs><title>iconSheet</title><path class="cls-1" d="M198.77,89c0,39.22-71,148.09-71,148.09s-71-108.86-71-148.09a71,71,0,1,1,142,0Z"/><path class="cls-2" d="M90.59,128.84c-1.64-4.92-5.61-15.71,8.3-32.22s9.61-27,9.61-27c8.82,8.08,6.83,22.32,6.83,22.32,20.69-22.52-5.19-46.52-5.19-46.52,29.33,2.83,35.76,20.4,40.61,33.8,4.69,13,.79,23.07.79,23.07C162.06,99.95,166,83.81,166,83.81c9.84,17.88-2.45,43.23-5.5,48-2.22,3.45-8,12.8-19.2,17.56l-.08,0h0c-.66.28-1.33.54-2,.78a6.59,6.59,0,0,1-6.36-1.7s-6-5.53,1.62-9.38c8.24-4.17,11.94-16.86,11.94-16.86-5,4.76-12.36,6.68-12.36,6.68,8.62-12.25-.65-29.09-.65-29.09,1.82,18.6-12.17,22.4-12.17,22.4a11.25,11.25,0,0,0-6.85-9.21c.1,20.76-8.92,24.15-12.72,24A11.9,11.9,0,0,1,90.59,128.84Z"/></svg>